<svg width="45" height="48" xmlns="http://www.w3.org/2000/svg">

 <g>
  <title>background</title>
  <rect fill="none" id="canvas_background" height="50" width="47" y="-1" x="-1"/>
 </g>
 <g>
  <title>Layer 1</title>
  <path fill-rule="evenodd" fill="#ffffff" id="svg_1" d="m41,28.6a17.976,17.976 0 0 1 -29.265,7.655a18.08,18.08 0 0 1 7.36,-29.259a5.373,5.373 0 0 0 1.684,2.104a5.812,5.812 0 0 0 1.06,1.075c-0.424,1.105 -1.643,4.895 0.9,6.37c0.534,0.958 1.616,1.66 3.613,1.7c0.02,1.381 0.325,3.629 1.969,4.624c0.925,1.482 2.811,2.365 6.6,0.751a5.55,5.55 0 0 0 2.079,3.608a3.282,3.282 0 0 0 4,1.372z" class="vi-primary"/>
  <path fill="#000000" fill-rule="evenodd" id="svg_2" d="m13.5,25a1.5,1.5 0 1 1 -1.5,1.5a1.5,1.5 0 0 1 1.5,-1.5zm9,9a1.5,1.5 0 1 1 -1.5,1.5a1.5,1.5 0 0 1 1.5,-1.5zm0,-10a1.5,1.5 0 1 1 -1.5,1.5a1.5,1.5 0 0 1 1.5,-1.5zm-6,-10a1.5,1.5 0 1 1 -1.5,1.5a1.5,1.5 0 0 1 1.5,-1.5zm17,15a1.5,1.5 0 1 1 -1.5,1.5a1.5,1.5 0 0 1 1.5,-1.5z" class="vi-accent"/>
 </g>
</svg>