<svg width="56.7" height="56.7" xmlns="http://www.w3.org/2000/svg">

 <g>
  <title>background</title>
  <rect fill="none" id="canvas_background" height="402" width="582" y="-1" x="-1"/>
 </g>
 <g>
  <title>Layer 1</title>
  <circle fill="#ffffff" id="svg_2" r="4.4" cy="30" cx="28.1"/>
  <path fill="#ffffff" id="svg_3" d="m33.6,19.2l-11,0c-1.6,0 -3,0.5 -3.9,1.4c-0.9,0.9 -1.4,2.3 -1.4,3.9l0,11c0,1.6 0.5,3 1.5,4c1,0.9 2.3,1.4 3.9,1.4l10.9,0c1.6,0 3,-0.5 3.9,-1.4c1,-0.9 1.5,-2.3 1.5,-3.9l0,-11c0,-1.6 -0.5,-2.9 -1.4,-3.9c-1,-1 -2.3,-1.5 -4,-1.5zm-5.5,17.6c-3.8,0 -6.8,-3.1 -6.8,-6.8c0,-3.8 3.1,-6.8 6.8,-6.8s6.9,3 6.9,6.8c0,3.8 -3.1,6.8 -6.9,6.8zm7.1,-12.3c-0.9,0 -1.6,-0.7 -1.6,-1.6s0.7,-1.6 1.6,-1.6s1.6,0.7 1.6,1.6s-0.7,1.6 -1.6,1.6z"/>
  <path fill="#ffffff" id="svg_4" d="m28.3,5.2c-13.6,0 -24.6,11 -24.6,24.6c0,13.6 11,24.6 24.6,24.6c13.6,0 24.6,-11 24.6,-24.6c0.1,-13.6 -11,-24.6 -24.6,-24.6zm13.1,30.4c0,2.3 -0.8,4.3 -2.2,5.7c-1.4,1.4 -3.4,2.1 -5.6,2.1l-10.9,0c-2.2,0 -4.2,-0.7 -5.6,-2.1c-1.5,-1.4 -2.2,-3.4 -2.2,-5.7l0,-11c0,-4.6 3.1,-7.8 7.8,-7.8l11,0c2.3,0 4.2,0.8 5.6,2.2c1.4,1.4 2.1,3.3 2.1,5.6l0,11z"/>
 </g>
</svg>